<svg width="8" height="8" viewBox="0 0 8 8" fill="none" xmlns="http://www.w3.org/2000/svg">
<path d="M7.42857 3.14286H4.85714V0.571429C4.85714 0.255893 4.60125 0 4.28571 0H3.71429C3.39875 0 3.14286 0.255893 3.14286 0.571429V3.14286H0.571429C0.255893 3.14286 0 3.39875 0 3.71429V4.28571C0 4.60125 0.255893 4.85714 0.571429 4.85714H3.14286V7.42857C3.14286 7.74411 3.39875 8 3.71429 8H4.28571C4.60125 8 4.85714 7.74411 4.85714 7.42857V4.85714H7.42857C7.74411 4.85714 8 4.60125 8 4.28571V3.71429C8 3.39875 7.74411 3.14286 7.42857 3.14286Z" fill="white"/>
</svg>
