<svg width="15" height="12" viewBox="0 0 15 12" fill="none" xmlns="http://www.w3.org/2000/svg">
<path d="M0.75 6.72739H12.4395L8.4165 10.6285C8.12363 10.9125 8.12362 11.373 8.41631 11.6568C8.70919 11.9408 9.18431 11.9408 9.47719 11.6568L14.7802 6.5143V6.5143C14.8151 6.48048 14.8462 6.44321 14.8736 6.40358C14.8862 6.38521 14.895 6.36539 14.9059 6.3463C14.9183 6.32376 14.9325 6.3023 14.9424 6.27848C14.9531 6.25394 14.9591 6.22848 14.9666 6.20303C14.9728 6.18285 14.9809 6.16358 14.9852 6.14285C14.9949 6.09558 15 6.04794 15 6.00012V6.00012C15 5.99958 14.9998 5.99903 14.9998 5.99848C14.9996 5.95139 14.9948 5.90412 14.9852 5.85776C14.9807 5.83594 14.9723 5.81576 14.9657 5.7943C14.9584 5.77012 14.9528 5.74558 14.9426 5.72212C14.9318 5.69685 14.9171 5.67394 14.9036 5.65012C14.8935 5.6323 14.8854 5.61412 14.8738 5.59703C14.8464 5.55685 14.8149 5.51939 14.7799 5.48539L9.477 0.343394C9.18413 0.0593938 8.70919 0.0593938 8.41631 0.343212C8.12344 0.627212 8.12344 1.08776 8.41631 1.37194L12.4393 5.27285H0.75C0.335813 5.27285 0 5.59848 0 6.00012C0 6.40176 0.335813 6.72739 0.75 6.72739Z" fill="white"/>
</svg>
